<svg width="21" height="20" viewBox="0 0 21 20" fill="none" xmlns="http://www.w3.org/2000/svg">
<rect x="0.742065" width="20.0862" height="20" rx="10" fill="white"/>
<path d="M5.42945 9.44394C8.1143 8.31505 9.90418 7.57075 10.7991 7.21117C13.3574 6.18436 13.8883 6.00603 14.235 6.00006C14.3113 5.99881 14.4811 6.017 14.5919 6.10353C14.6839 6.17645 14.7099 6.27506 14.7228 6.34422C14.7343 6.41339 14.7502 6.57103 14.7372 6.69408C14.5991 8.09964 13.9991 11.5105 13.6941 13.0848C13.566 13.7509 13.3113 13.9742 13.0653 13.996C12.53 14.0435 12.1243 13.6549 11.6063 13.3273C10.7962 12.8143 10.3387 12.4952 9.55168 11.9948C8.64234 11.4164 9.23224 11.0985 9.75022 10.5791C9.88547 10.4431 12.2423 8.37436 12.2869 8.18672C12.2926 8.16325 12.2984 8.07575 12.2437 8.02964C12.1905 7.98339 12.1113 7.99922 12.0537 8.01172C11.9717 8.0295 10.6782 8.85561 8.16891 10.4899C7.80201 10.7335 7.46965 10.8523 7.17037 10.846C6.84232 10.8392 6.20928 10.6666 5.73878 10.5191C5.16325 10.3381 4.70424 10.2424 4.74453 9.93505C4.76467 9.77505 4.99348 9.6113 5.42945 9.44394Z" fill="#26A4E2"/>
</svg>
