<svg width="21" height="22" viewBox="0 0 21 22" fill="none" xmlns="http://www.w3.org/2000/svg">
<g clip-path="url(#clip0_142_2080)">
<path d="M18.5611 2.80596C18.0348 2.32241 15.9079 0.785047 11.1704 0.76416C11.1704 0.76416 5.58365 0.428712 2.86021 2.91609C1.34419 4.42593 0.810876 6.63514 0.754621 9.37411C0.698366 12.1131 0.625584 17.2461 5.59477 18.6379H5.59954L5.59636 20.7616C5.59636 20.7616 5.56458 21.6215 6.13317 21.7968C6.82094 22.0094 7.22458 21.3559 7.88121 20.6515C8.24162 20.2648 8.73933 19.6967 9.11437 19.2626C12.5129 19.5474 15.1267 18.8964 15.4235 18.8002C16.1097 18.5787 19.9926 18.0834 20.6241 12.9507C21.2759 7.66047 20.3088 4.31422 18.5611 2.80596Z" fill="white"/>
<path d="M17.4562 3.87431C17.0113 3.47177 15.0907 2.27017 11.0832 2.25276C11.0832 2.25276 6.33777 1.94232 4.03417 4.01988C2.75207 5.28034 2.32015 7.15474 2.27279 9.44212C2.22543 11.7295 1.98007 16.0992 6.18203 17.2615C6.18203 17.2615 6.16551 20.5056 6.1636 20.7907C6.1636 20.9901 6.19538 21.1265 6.3098 21.1546C6.39212 21.1746 6.51543 21.1322 6.62031 21.0281C7.2922 20.3562 9.44323 17.7723 9.44323 17.7723C12.3294 17.96 14.6257 17.3926 14.8726 17.3122C15.4549 17.1258 18.6042 16.8565 19.1372 12.5697C19.688 8.15096 18.9348 5.13477 17.4562 3.87431Z" fill="#7360F2"/>
<path d="M13.1206 9.25489C13.0685 8.20867 12.5348 7.65919 11.5194 7.60645" stroke="white" stroke-width="0.533553" stroke-linecap="round" stroke-linejoin="round"/>
<path d="M14.4955 9.71378C14.5166 8.73909 14.2267 7.92473 13.6256 7.27071C13.0217 6.61437 12.1858 6.25297 11.1132 6.1748" stroke="white" stroke-width="0.533553" stroke-linecap="round" stroke-linejoin="round"/>
<path d="M15.9024 10.262C15.8893 8.57061 15.3817 7.23852 14.3797 6.26572C13.3777 5.29292 12.1313 4.80135 10.6405 4.79102" stroke="white" stroke-width="0.533553" stroke-linecap="round" stroke-linejoin="round"/>
<path d="M11.5733 12.8275C11.5733 12.8275 11.9499 12.8591 12.1527 12.6104L12.5481 12.1151C12.7388 11.8695 13.199 11.7129 13.6497 11.9629C13.9874 12.1547 14.3153 12.3632 14.6321 12.5876C14.9311 12.8066 15.5436 13.3154 15.5455 13.3154C15.8373 13.5607 15.9046 13.9208 15.706 14.3006C15.706 14.3028 15.7044 14.3066 15.7044 14.3085C15.4856 14.6861 15.2079 15.0267 14.8816 15.3174C14.8778 15.3193 14.8777 15.3212 14.8743 15.3231C14.5908 15.5589 14.3122 15.693 14.0387 15.7253C13.9984 15.7322 13.9575 15.7348 13.9166 15.7329C13.796 15.7342 13.676 15.7158 13.5613 15.6784L13.5524 15.6655C13.131 15.5471 12.4273 15.2509 11.2555 14.6072C10.5769 14.2392 9.9309 13.8146 9.3244 13.3379C9.02052 13.0992 8.73071 12.8433 8.45642 12.5714L8.42718 12.5423L8.39794 12.5132L8.3687 12.4841L8.33946 12.455C8.0664 12.1819 7.80939 11.8933 7.56969 11.5907C7.09105 10.9873 6.6646 10.3446 6.29489 9.66949C5.64844 8.50238 5.35095 7.80237 5.23209 7.38211L5.21905 7.37325C5.18184 7.25902 5.16348 7.13953 5.16471 7.01945C5.16253 6.9788 5.16499 6.93803 5.17202 6.89793C5.20698 6.62619 5.34226 6.34866 5.57788 6.06532C5.57979 6.06184 5.58169 6.06184 5.5836 6.05804C5.87541 5.73308 6.21745 5.4566 6.59682 5.23904C6.59873 5.23904 6.60255 5.23714 6.60477 5.23714C6.98616 5.03935 7.34785 5.10644 7.59384 5.39537C7.59575 5.39727 8.10586 6.00709 8.32484 6.30488C8.55007 6.62134 8.7592 6.94772 8.95222 7.28401C9.20331 7.73243 9.04598 8.19162 8.79935 8.38086L8.30195 8.77454C8.05087 8.97644 8.08393 9.35145 8.08393 9.35145C8.08393 9.35145 8.82065 12.1278 11.5733 12.8275Z" fill="white"/>
</g>
<defs>
<clipPath id="clip0_142_2080">
<rect width="20.0862" height="21.0886" fill="white" transform="translate(0.742065 0.749023)"/>
</clipPath>
</defs>
</svg>
