<svg width="21" height="20" viewBox="0 0 21 20" fill="none" xmlns="http://www.w3.org/2000/svg">
<path d="M16.7081 4.1065C15.1296 2.534 13.0306 1.66734 10.7944 1.6665C6.18624 1.6665 2.43598 5.399 2.43431 9.98734C2.43347 11.454 2.81845 12.8857 3.54993 14.1473L2.41589 18.3332L6.79552 17.3023C8.0166 17.9657 9.39083 18.3148 10.7902 18.3157H10.7935C15.4008 18.3157 19.1511 14.5823 19.1536 9.99484C19.1552 7.77067 18.2865 5.67984 16.7081 4.1065ZM14.8844 12.9615C14.7103 13.4473 13.8575 13.9157 13.4742 13.9498C13.0909 13.9848 12.7318 14.1223 10.9676 13.4298C8.84432 12.5965 7.50356 10.429 7.39978 10.2907C7.29517 10.1515 6.54696 9.16317 6.54696 8.13984C6.54696 7.1165 7.08677 6.61317 7.27843 6.40567C7.47009 6.19734 7.69606 6.14567 7.83582 6.14567C7.97475 6.14567 8.11452 6.14567 8.23587 6.15067C8.38485 6.1565 8.54972 6.164 8.70622 6.50984C8.89202 6.9215 9.29793 7.94984 9.34982 8.05401C9.40171 8.15817 9.43686 8.27984 9.36739 8.41817C9.29793 8.55651 9.26278 8.64317 9.159 8.76484C9.05439 8.88651 8.93973 9.03567 8.84599 9.12901C8.74137 9.23234 8.63258 9.34567 8.75393 9.55317C8.87612 9.76151 9.29458 10.4423 9.91558 10.9932C10.714 11.7015 11.3861 11.9207 11.5953 12.0257C11.8045 12.1298 11.9259 12.1123 12.0481 11.9732C12.1703 11.8348 12.5703 11.3665 12.7092 11.1582C12.8482 10.9498 12.9879 10.9848 13.1796 11.054C13.3712 11.1232 14.3982 11.6265 14.6065 11.7307C14.8158 11.8348 14.9547 11.8865 15.0066 11.9732C15.0585 12.059 15.0585 12.4757 14.8844 12.9615Z" fill="white"/>
</svg>
