<svg width="170" height="23" viewBox="0 0 170 23" fill="none" xmlns="http://www.w3.org/2000/svg">
<path d="M5.73455 1.12524C5.79917 0.88672 6.05189 0.693359 6.29902 0.693359H9.87865C10.1258 0.693359 10.2737 0.88672 10.2091 1.12524L9.15594 5.01218H5.12886C4.88173 5.01218 4.73379 4.81882 4.79842 4.5803L5.73455 1.12524Z" fill="white"/>
<path d="M9.15594 5.01218H13.183C13.4302 5.01218 13.5781 5.20554 13.5135 5.44407L9.06685 21.8556C9.00223 22.0941 8.74951 22.2875 8.50238 22.2875H4.92275C4.67563 22.2875 4.52769 22.0941 4.59231 21.8556L9.15594 5.01218Z" fill="white"/>
<path fill-rule="evenodd" clip-rule="evenodd" d="M18.5525 5.01218C18.3054 5.01218 18.0526 5.20554 17.988 5.44407L13.5414 21.8556C13.5406 21.8585 13.5399 21.8613 13.5392 21.8642C13.4803 22.0987 13.6277 22.2875 13.8718 22.2875H17.4515C17.6986 22.2875 17.9513 22.0941 18.0159 21.8556L19.5371 16.2411H22.6196L23.8855 22.04C23.9185 22.1911 24.05 22.2875 24.2231 22.2875H27.708C28.0362 22.2875 28.3421 21.9577 28.2796 21.6712L26.9382 15.5266C29.1831 14.5074 31.0654 12.502 31.6905 10.1948L32.6267 6.73971C33.5314 3.4004 31.4602 0.693359 28.0005 0.693359C28.0005 0.693359 24.6654 0.693359 24.1972 0.693359C23.7289 0.693359 23.7289 0.693359 23.6327 1.12524C23.5365 1.55712 22.5796 5.01218 22.5796 5.01218H18.5525ZM20.8243 11.4904C20.7597 11.7289 20.9076 11.9223 21.1548 11.9223H24.9581C25.9466 11.9223 26.9575 11.1489 27.216 10.1948L28.1521 6.73971C28.4106 5.78562 27.8189 5.01218 26.8304 5.01218H22.5796L20.8243 11.4904Z" fill="white"/>
<path d="M23.6327 1.12524C23.7289 0.693359 23.7289 0.693359 24.1972 0.693359H23.7289L23.6327 1.12524Z" fill="white"/>
<path d="M9.06685 21.8556C9.00223 22.0941 8.74951 22.2875 8.50238 22.2875H8.94994L9.06685 21.8556Z" fill="white"/>
<path d="M13.8718 22.2875C13.6277 22.2875 13.4803 22.0987 13.5392 21.8642L13.4287 22.2875H13.8718Z" fill="white"/>
<path d="M5.71892 1.12524C5.78355 0.88672 6.03768 0.693359 6.28655 0.693359H9.89146C10.1403 0.693359 10.2897 0.88672 10.2251 1.12524L10.2245 1.12718L9.17191 5.01218H5.11639C4.86752 5.01218 4.71817 4.81882 4.78279 4.5803L5.71892 1.12524Z" fill="#F58E28"/>
<path d="M9.89146 0.693359C10.1403 0.693359 10.2897 0.88672 10.2251 1.12524L10.2245 1.12718L10.3486 0.693359H9.89146Z" fill="#F58E28"/>
<path d="M47.546 7.41282L43.4391 22.0925C43.386 22.2822 43.2692 22.3771 43.0886 22.3771H42.3745C42.2103 22.3771 42.1547 22.2822 42.2078 22.0925L46.3147 7.41282C46.3678 7.2231 46.4764 7.12824 46.6406 7.12824H47.3548C47.5354 7.12824 47.5991 7.2231 47.546 7.41282ZM51.1281 22.3771H50.414C50.2334 22.3771 50.1697 22.2822 50.2227 22.0925L54.051 8.40886C54.0908 8.26657 54.0286 8.19542 53.8645 8.19542H50.2937C50.0967 8.19542 50.0225 8.10847 50.0712 7.93456L50.2238 7.38911C50.2724 7.2152 50.3953 7.12824 50.5923 7.12824H59.4576C59.6546 7.12824 59.7288 7.2152 59.6801 7.38911L59.5275 7.93456C59.4788 8.10847 59.356 8.19542 59.159 8.19542H55.5883C55.4241 8.19542 55.3221 8.26657 55.2823 8.40886L51.454 22.0925C51.4009 22.2822 51.2923 22.3771 51.1281 22.3771ZM64.3081 15.31H59.186C58.989 15.31 58.9148 15.223 58.9634 15.0491L59.1094 14.5274C59.1581 14.3535 59.2809 14.2665 59.4779 14.2665H64.6001C64.7971 14.2665 64.8712 14.3535 64.8226 14.5274L64.6766 15.0491C64.628 15.223 64.5051 15.31 64.3081 15.31ZM66.6534 22.3771H65.9392C65.775 22.3771 65.7195 22.2822 65.7726 22.0925L69.8795 7.41282C69.9326 7.2231 70.0412 7.12824 70.2054 7.12824H75.8201C76.8872 7.12824 77.6486 7.42863 78.1044 8.02942C78.5602 8.6302 78.6421 9.45233 78.3502 10.4958L77.7199 12.7487C77.4722 13.6341 77.0306 14.3614 76.3953 14.9305C75.7764 15.4997 75.0426 15.8633 74.1939 16.0214L74.1674 16.1163L75.4259 22.0925C75.4713 22.2822 75.3873 22.3771 75.1739 22.3771H74.4105C74.1971 22.3771 74.0759 22.2822 74.0468 22.0925L72.813 16.1163H68.9221C68.7579 16.1163 68.6559 16.1874 68.6161 16.3297L67.0039 22.0925C66.9508 22.2822 66.834 22.3771 66.6534 22.3771ZM69.2074 15.0965H73.4676C74.2228 15.0965 74.8609 14.8989 75.3819 14.5037C75.9074 14.0926 76.274 13.5155 76.4819 12.7725L77.1056 10.5432C77.3135 9.80015 77.2697 9.22308 76.9743 8.81202C76.6789 8.40095 76.1536 8.19542 75.3984 8.19542H71.1381C70.9739 8.19542 70.8719 8.26657 70.8321 8.40886L69.0208 14.8831C68.981 15.0254 69.0432 15.0965 69.2074 15.0965ZM86.9494 22.3771H81.8026C80.7355 22.3771 79.9741 22.0767 79.5183 21.4759C79.079 20.8751 79.0052 20.053 79.2972 19.0095L80.7966 13.6499C81.0886 12.6064 81.6223 11.7843 82.3978 11.1835C83.1897 10.5828 84.1193 10.2824 85.1864 10.2824H87.3042C88.3713 10.2824 89.1328 10.5828 89.5885 11.1835C90.0443 11.7843 90.1262 12.6064 89.8343 13.6499L88.9917 16.6617C88.9386 16.8515 88.8136 16.9463 88.6166 16.9463H81.3273C81.1796 16.9463 81.0858 17.0175 81.046 17.1598L80.5351 18.9858C80.3272 19.7289 80.3628 20.306 80.6418 20.717C80.9252 21.1123 81.4445 21.3099 82.1997 21.3099H87.248C87.4286 21.3099 87.4946 21.3969 87.4459 21.5708L87.2933 22.1162C87.2447 22.2901 87.13 22.3771 86.9494 22.3771ZM81.5927 15.9977H87.7245C87.8723 15.9977 87.9661 15.9266 88.0059 15.7843L88.5964 13.6736C88.8043 12.9306 88.7665 12.3614 88.4831 11.9661C88.2041 11.5551 87.687 11.3495 86.9318 11.3495H84.9863C84.2311 11.3495 83.599 11.5551 83.09 11.9661C82.5854 12.3614 82.2292 12.9306 82.0213 13.6736L81.4308 15.7843C81.391 15.9266 81.445 15.9977 81.5927 15.9977ZM94.7851 22.3771H90.5002C90.3196 22.3771 90.2536 22.2901 90.3023 22.1162L90.4549 21.5708C90.4991 21.4127 90.6115 21.3336 90.7921 21.3336H94.9539C96.4314 21.3336 97.325 20.7803 97.6346 19.6736L97.7939 19.1044C98.0814 18.0767 97.8097 17.4048 96.9788 17.0886L94.219 15.9503C93.4702 15.6341 92.9749 15.2625 92.7332 14.8357C92.5078 14.4088 92.5013 13.8159 92.7136 13.057C93.2311 11.2073 94.5488 10.2824 96.6666 10.2824H100.656C100.837 10.2824 100.903 10.3693 100.854 10.5432L100.701 11.0887C100.657 11.2468 100.545 11.3258 100.364 11.3258H96.4978C95.8247 11.3258 95.276 11.4681 94.8516 11.7527C94.4436 12.0373 94.1866 12.3693 94.0804 12.7487L93.9278 13.2942C93.804 13.7369 93.8298 14.0847 94.0053 14.3377C94.1972 14.5906 94.5315 14.8041 95.0082 14.978L97.7547 16.1637C98.5332 16.4325 98.9868 16.8357 99.1155 17.3732C99.265 17.8949 99.2071 18.6301 98.9417 19.5787C98.6763 20.5273 98.2004 21.2309 97.5139 21.6894C96.8439 22.1478 95.9343 22.3771 94.7851 22.3771ZM106.646 22.3771H104.529C103.461 22.3771 102.7 22.0767 102.244 21.4759C101.805 20.8751 101.731 20.053 102.023 19.0095L103.523 13.6499C103.815 12.6064 104.348 11.7843 105.124 11.1835C105.916 10.5828 106.845 10.2824 107.912 10.2824H110.03C111.097 10.2824 111.859 10.5828 112.314 11.1835C112.77 11.7843 112.852 12.6064 112.56 13.6499L111.061 19.0095C110.769 20.053 110.227 20.8751 109.435 21.4759C108.643 22.0767 107.714 22.3771 106.646 22.3771ZM104.926 21.3099H106.846C107.602 21.3099 108.232 21.1123 108.736 20.717C109.262 20.306 109.628 19.7289 109.836 18.9858L111.322 13.6736C111.53 12.9306 111.484 12.3614 111.184 11.9661C110.905 11.5551 110.388 11.3495 109.633 11.3495H107.712C106.957 11.3495 106.325 11.5551 105.816 11.9661C105.311 12.3614 104.955 12.9306 104.747 13.6736L103.261 18.9858C103.053 19.7289 103.089 20.306 103.368 20.717C103.651 21.1123 104.17 21.3099 104.926 21.3099ZM118.444 22.3771H116.819C115.768 22.3771 115.023 22.0767 114.584 21.4759C114.145 20.8751 114.071 20.053 114.363 19.0095L116.725 10.5669C116.778 10.3772 116.887 10.2824 117.051 10.2824H117.765C117.946 10.2824 118.009 10.3772 117.956 10.5669L115.608 18.9621C115.4 19.7052 115.435 20.2823 115.714 20.6933C115.993 21.1044 116.51 21.3099 117.265 21.3099H118.866C119.654 21.3099 120.325 21.1123 120.879 20.717C121.454 20.306 121.845 19.7289 122.053 18.9858L124.408 10.5669C124.461 10.3772 124.578 10.2824 124.759 10.2824H125.473C125.637 10.2824 125.693 10.3772 125.639 10.5669L122.415 22.0925C122.362 22.2822 122.253 22.3771 122.089 22.3771H121.375C121.194 22.3771 121.131 22.2822 121.184 22.0925L121.449 21.1439H121.351C120.694 21.966 119.725 22.3771 118.444 22.3771ZM126.986 22.3771H126.271C126.107 22.3771 126.052 22.2822 126.105 22.0925L129.329 10.5669C129.382 10.3772 129.491 10.2824 129.655 10.2824H130.369C130.55 10.2824 130.614 10.3772 130.561 10.5669L130.282 11.563H130.38C130.654 11.231 131.056 10.9385 131.586 10.6855C132.121 10.4167 132.725 10.2824 133.398 10.2824H134.359C134.539 10.2824 134.605 10.3693 134.557 10.5432L134.397 11.1124C134.349 11.2863 134.236 11.3654 134.06 11.3495H132.903C132.098 11.3495 131.4 11.5867 130.808 12.061C130.232 12.5353 129.831 13.1756 129.605 13.9819L127.336 22.0925C127.283 22.2822 127.166 22.3771 126.986 22.3771ZM140.989 21.5708L140.836 22.1162C140.787 22.2901 140.673 22.3771 140.492 22.3771H136.946C135.879 22.3771 135.118 22.0767 134.662 21.4759C134.222 20.8751 134.149 20.053 134.441 19.0095L135.94 13.6499C136.232 12.6064 136.766 11.7843 137.541 11.1835C138.333 10.5828 139.263 10.2824 140.33 10.2824H143.876C144.057 10.2824 144.123 10.3693 144.074 10.5432L143.915 11.1124C143.87 11.2705 143.758 11.3495 143.577 11.3495H140.13C139.375 11.3495 138.743 11.5551 138.234 11.9661C137.725 12.3772 137.366 12.9543 137.158 13.6973L135.685 18.9621C135.477 19.7052 135.513 20.2823 135.792 20.6933C136.071 21.1044 136.588 21.3099 137.343 21.3099H140.791C140.971 21.3099 141.037 21.3969 140.989 21.5708ZM151.785 22.3771H146.638C145.571 22.3771 144.809 22.0767 144.353 21.4759C143.914 20.8751 143.84 20.053 144.132 19.0095L145.632 13.6499C145.924 12.6064 146.457 11.7843 147.233 11.1835C148.025 10.5828 148.954 10.2824 150.021 10.2824H152.139C153.206 10.2824 153.968 10.5828 154.424 11.1835C154.879 11.7843 154.961 12.6064 154.669 13.6499L153.827 16.6617C153.774 16.8515 153.649 16.9463 153.452 16.9463H146.162C146.015 16.9463 145.921 17.0175 145.881 17.1598L145.37 18.9858C145.162 19.7289 145.198 20.306 145.477 20.717C145.76 21.1123 146.28 21.3099 147.035 21.3099H152.083C152.264 21.3099 152.33 21.3969 152.281 21.5708L152.128 22.1162C152.08 22.2901 151.965 22.3771 151.785 22.3771ZM146.428 15.9977H152.56C152.707 15.9977 152.801 15.9266 152.841 15.7843L153.431 13.6736C153.639 12.9306 153.602 12.3614 153.318 11.9661C153.039 11.5551 152.522 11.3495 151.767 11.3495H149.821C149.066 11.3495 148.434 11.5551 147.925 11.9661C147.421 12.3614 147.064 12.9306 146.856 13.6736L146.266 15.7843C146.226 15.9266 146.28 15.9977 146.428 15.9977ZM159.62 22.3771H155.335C155.155 22.3771 155.089 22.2901 155.137 22.1162L155.29 21.5708C155.334 21.4127 155.447 21.3336 155.627 21.3336H159.789C161.267 21.3336 162.16 20.7803 162.47 19.6736L162.629 19.1044C162.916 18.0767 162.645 17.4048 161.814 17.0886L159.054 15.9503C158.305 15.6341 157.81 15.2625 157.568 14.8357C157.343 14.4088 157.336 13.8159 157.549 13.057C158.066 11.2073 159.384 10.2824 161.502 10.2824H165.491C165.672 10.2824 165.738 10.3693 165.689 10.5432L165.536 11.0887C165.492 11.2468 165.38 11.3258 165.199 11.3258H161.333C160.66 11.3258 160.111 11.4681 159.687 11.7527C159.279 12.0373 159.022 12.3693 158.916 12.7487L158.763 13.2942C158.639 13.7369 158.665 14.0847 158.84 14.3377C159.032 14.5906 159.367 14.8041 159.843 14.978L162.59 16.1637C163.368 16.4325 163.822 16.8357 163.951 17.3732C164.1 17.8949 164.042 18.6301 163.777 19.5787C163.511 20.5273 163.035 21.2309 162.349 21.6894C161.679 22.1478 160.769 22.3771 159.62 22.3771Z" fill="white"/>
</svg>
