<svg width="231" height="31" viewBox="0 0 231 31" fill="none" xmlns="http://www.w3.org/2000/svg">
<g clip-path="url(#clip0_246_3248)">
<path d="M7.6505 1.43175C7.73673 1.11348 8.07396 0.855469 8.4037 0.855469H13.1802C13.51 0.855469 13.7074 1.11348 13.6211 1.43175L12.2159 6.61832H6.84229C6.51254 6.61832 6.31513 6.36031 6.40137 6.04204L7.6505 1.43175Z" fill="#1F2A56"/>
<path d="M12.2159 6.61832H17.5894C17.9192 6.61832 18.1166 6.87633 18.0304 7.19461L12.097 29.0935C12.0108 29.4117 11.6735 29.6697 11.3438 29.6697H6.56727C6.23753 29.6697 6.04012 29.4117 6.12635 29.0935L12.2159 6.61832Z" fill="#1F2A56"/>
<path fill-rule="evenodd" clip-rule="evenodd" d="M24.7542 6.61832C24.4245 6.61832 24.0872 6.87633 24.001 7.19461L18.0676 29.0935C18.0666 29.0973 18.0656 29.1011 18.0646 29.1049C17.9862 29.4179 18.1828 29.6697 18.5085 29.6697H23.2851C23.6148 29.6697 23.952 29.4117 24.0383 29.0935L26.0681 21.6017H30.1812L31.8704 29.3395C31.9144 29.5411 32.0898 29.6697 32.3208 29.6697H36.9709C37.4089 29.6697 37.8171 29.2297 37.7336 28.8474L35.9437 20.6484C38.9393 19.2884 41.4509 16.6124 42.2851 13.5337L43.5342 8.92346C44.7415 4.46763 41.9778 0.855469 37.3613 0.855469C37.3613 0.855469 32.9111 0.855469 32.2863 0.855469C31.6615 0.855469 31.6615 0.855469 31.533 1.43175C31.4046 2.00804 30.1278 6.61832 30.1278 6.61832H24.7542ZM27.7857 15.2626C27.6994 15.5809 27.8968 15.8389 28.2266 15.8389H33.3016C34.6206 15.8389 35.9695 14.8068 36.3144 13.5337L37.5636 8.92346C37.9085 7.65037 37.1189 6.61832 35.7999 6.61832H30.1278L27.7857 15.2626Z" fill="#1F2A56"/>
<path d="M31.533 1.43175C31.6615 0.855469 31.6615 0.855469 32.2863 0.855469H31.6615L31.533 1.43175Z" fill="#1F2A56"/>
<path d="M12.097 29.0935C12.0108 29.4117 11.6735 29.6697 11.3438 29.6697H11.941L12.097 29.0935Z" fill="#1F2A56"/>
<path d="M18.5085 29.6697C18.1828 29.6697 17.9862 29.4179 18.0646 29.1049L17.9173 29.6697H18.5085Z" fill="#1F2A56"/>
<path d="M7.62901 1.43175C7.71525 1.11348 8.05436 0.855469 8.38644 0.855469H13.1967C13.5287 0.855469 13.728 1.11348 13.6418 1.43175L13.6411 1.43435L12.2365 6.61832H6.82502C6.49294 6.61832 6.29365 6.36031 6.37988 6.04204L7.62901 1.43175Z" fill="#F58E28"/>
<path d="M13.1967 0.855469C13.5287 0.855469 13.728 1.11348 13.6418 1.43175L13.6411 1.43435L13.8067 0.855469H13.1967Z" fill="#F58E28"/>
<path d="M63.5366 9.48623L58.0565 29.0742C57.9857 29.3273 57.8298 29.4539 57.5888 29.4539H56.6359C56.4168 29.4539 56.3427 29.3273 56.4135 29.0742L61.8936 9.48623C61.9644 9.23308 62.1094 9.1065 62.3285 9.1065H63.2814C63.5224 9.1065 63.6074 9.23308 63.5366 9.48623ZM68.3164 29.4539H67.3635C67.1225 29.4539 67.0375 29.3273 67.1083 29.0742L72.2166 10.8153C72.2697 10.6254 72.1867 10.5305 71.9676 10.5305H67.203C66.9401 10.5305 66.8411 10.4145 66.9061 10.1824L67.1097 9.45459C67.1746 9.22253 67.3385 9.1065 67.6014 9.1065H79.4309C79.6937 9.1065 79.7927 9.22253 79.7278 9.45459L79.5242 10.1824C79.4592 10.4145 79.2953 10.5305 79.0325 10.5305H74.2678C74.0488 10.5305 73.9127 10.6254 73.8595 10.8153L68.7513 29.0742C68.6804 29.3273 68.5355 29.4539 68.3164 29.4539ZM85.9032 20.0239H79.0684C78.8056 20.0239 78.7066 19.9078 78.7715 19.6758L78.9663 18.9796C79.0312 18.7475 79.1951 18.6315 79.458 18.6315H86.2928C86.5556 18.6315 86.6546 18.7475 86.5897 18.9796L86.3949 19.6758C86.33 19.9078 86.1661 20.0239 85.9032 20.0239ZM89.0326 29.4539H88.0797C87.8606 29.4539 87.7865 29.3273 87.8573 29.0742L93.3374 9.48623C93.4083 9.23308 93.5532 9.1065 93.7723 9.1065H101.264C102.688 9.1065 103.704 9.50733 104.312 10.309C104.921 11.1107 105.03 12.2077 104.64 13.6L103.799 16.6063C103.469 17.7876 102.88 18.7581 102.032 19.5175C101.206 20.277 100.227 20.7622 99.0944 20.9732L99.059 21.0998L100.738 29.0742C100.799 29.3273 100.687 29.4539 100.402 29.4539H99.3834C99.0986 29.4539 98.9369 29.3273 98.8982 29.0742L97.2517 21.0998H92.0599C91.8408 21.0998 91.7047 21.1947 91.6516 21.3846L89.5003 29.0742C89.4295 29.3273 89.2736 29.4539 89.0326 29.4539ZM92.4406 19.7391H98.1253C99.133 19.7391 99.9845 19.4754 100.68 18.9479C101.381 18.3994 101.87 17.6294 102.147 16.6379L102.98 13.6633C103.257 12.6718 103.199 11.9018 102.804 11.3533C102.41 10.8048 101.709 10.5305 100.702 10.5305H95.0169C94.7978 10.5305 94.6617 10.6254 94.6086 10.8153L92.1917 19.4543C92.1386 19.6441 92.2215 19.7391 92.4406 19.7391ZM116.115 29.4539H109.247C107.823 29.4539 106.807 29.0531 106.199 28.2514C105.613 27.4498 105.514 26.3528 105.904 24.9604L107.905 17.8087C108.294 16.4164 109.007 15.3194 110.041 14.5177C111.098 13.7161 112.338 13.3152 113.762 13.3152H116.588C118.012 13.3152 119.028 13.7161 119.636 14.5177C120.245 15.3194 120.354 16.4164 119.964 17.8087L118.84 21.8276C118.769 22.0808 118.602 22.2073 118.339 22.2073H108.613C108.416 22.2073 108.291 22.3023 108.238 22.4921L107.556 24.9288C107.278 25.9203 107.326 26.6903 107.698 27.2388C108.076 27.7662 108.769 28.0299 109.777 28.0299H116.513C116.754 28.0299 116.842 28.1459 116.777 28.378L116.574 29.1058C116.509 29.3379 116.356 29.4539 116.115 29.4539ZM108.967 20.9415H117.149C117.346 20.9415 117.471 20.8466 117.525 20.6567L118.312 17.8404C118.59 16.8489 118.539 16.0894 118.161 15.562C117.789 15.0135 117.099 14.7392 116.091 14.7392H113.495C112.488 14.7392 111.644 15.0135 110.965 15.562C110.292 16.0894 109.816 16.8489 109.539 17.8404L108.751 20.6567C108.698 20.8466 108.77 20.9415 108.967 20.9415ZM126.57 29.4539H120.853C120.612 29.4539 120.524 29.3379 120.589 29.1058L120.792 28.378C120.851 28.167 121.001 28.0616 121.242 28.0616H126.796C128.767 28.0616 129.96 27.3232 130.373 25.8464L130.585 25.087C130.969 23.7157 130.606 22.8191 129.498 22.3972L125.815 20.8783C124.816 20.4563 124.155 19.9606 123.832 19.391C123.532 18.8214 123.523 18.0303 123.806 17.0176C124.497 14.5494 126.255 13.3152 129.081 13.3152H134.404C134.645 13.3152 134.733 13.4313 134.668 13.6633L134.465 14.3911C134.406 14.6021 134.256 14.7076 134.015 14.7076H128.856C127.958 14.7076 127.225 14.8974 126.659 15.2772C126.115 15.6569 125.772 16.0999 125.63 16.6063L125.426 17.3341C125.261 17.9248 125.296 18.3889 125.53 18.7264C125.786 19.064 126.232 19.3488 126.868 19.5808L130.533 21.1631C131.572 21.5217 132.177 22.0597 132.349 22.7769C132.548 23.4731 132.471 24.4541 132.117 25.7199C131.763 26.9857 131.128 27.9244 130.212 28.5362C129.318 29.148 128.104 29.4539 126.57 29.4539ZM142.398 29.4539H139.572C138.148 29.4539 137.132 29.0531 136.524 28.2514C135.937 27.4498 135.839 26.3528 136.229 24.9604L138.229 17.8087C138.619 16.4164 139.331 15.3194 140.366 14.5177C141.423 13.7161 142.663 13.3152 144.087 13.3152H146.913C148.337 13.3152 149.353 13.7161 149.961 14.5177C150.569 15.3194 150.678 16.4164 150.289 17.8087L148.288 24.9604C147.898 26.3528 147.175 27.4498 146.119 28.2514C145.062 29.0531 143.822 29.4539 142.398 29.4539ZM140.102 28.0299H142.665C143.672 28.0299 144.513 27.7662 145.186 27.2388C145.887 26.6903 146.376 25.9203 146.654 24.9288L148.637 17.8404C148.914 16.8489 148.853 16.0894 148.453 15.562C148.081 15.0135 147.391 14.7392 146.383 14.7392H143.82C142.812 14.7392 141.969 15.0135 141.29 15.562C140.616 16.0894 140.141 16.8489 139.863 17.8404L137.88 24.9288C137.603 25.9203 137.65 26.6903 138.023 27.2388C138.401 27.7662 139.094 28.0299 140.102 28.0299ZM158.14 29.4539H155.972C154.57 29.4539 153.576 29.0531 152.989 28.2514C152.403 27.4498 152.305 26.3528 152.694 24.9604L155.846 13.695C155.917 13.4418 156.062 13.3152 156.281 13.3152H157.234C157.475 13.3152 157.56 13.4418 157.489 13.695L154.355 24.8971C154.078 25.8886 154.125 26.6587 154.497 27.2072C154.87 27.7557 155.56 28.0299 156.567 28.0299H158.703C159.755 28.0299 160.65 27.7662 161.389 27.2388C162.156 26.6903 162.678 25.9203 162.955 24.9288L166.098 13.695C166.169 13.4418 166.325 13.3152 166.566 13.3152H167.519C167.738 13.3152 167.812 13.4418 167.741 13.695L163.439 29.0742C163.368 29.3273 163.223 29.4539 163.004 29.4539H162.051C161.81 29.4539 161.725 29.3273 161.796 29.0742L162.15 27.8084H162.018C161.142 28.9054 159.849 29.4539 158.14 29.4539ZM169.537 29.4539H168.584C168.365 29.4539 168.291 29.3273 168.362 29.0742L172.665 13.695C172.736 13.4418 172.88 13.3152 173.1 13.3152H174.052C174.293 13.3152 174.379 13.4418 174.308 13.695L173.936 15.024H174.067C174.432 14.581 174.969 14.1907 175.676 13.8532C176.39 13.4945 177.196 13.3152 178.094 13.3152H179.376C179.617 13.3152 179.705 13.4313 179.64 13.6633L179.427 14.4228C179.362 14.6548 179.212 14.7603 178.977 14.7392H177.433C176.36 14.7392 175.428 15.0557 174.637 15.6886C173.869 16.3214 173.334 17.1759 173.033 18.2518L170.005 29.0742C169.934 29.3273 169.778 29.4539 169.537 29.4539ZM188.223 28.378L188.019 29.1058C187.954 29.3379 187.801 29.4539 187.56 29.4539H182.828C181.404 29.4539 180.388 29.0531 179.78 28.2514C179.194 27.4498 179.096 26.3528 179.485 24.9604L181.486 17.8087C181.875 16.4164 182.588 15.3194 183.622 14.5177C184.679 13.7161 185.92 13.3152 187.343 13.3152H192.075C192.316 13.3152 192.404 13.4313 192.339 13.6633L192.127 14.4228C192.068 14.6337 191.918 14.7392 191.677 14.7392H187.076C186.069 14.7392 185.225 15.0135 184.546 15.562C183.867 16.1105 183.389 16.8805 183.111 17.872L181.146 24.8971C180.868 25.8886 180.916 26.6587 181.288 27.2072C181.66 27.7557 182.35 28.0299 183.358 28.0299H187.958C188.199 28.0299 188.287 28.1459 188.223 28.378ZM202.628 29.4539H195.76C194.336 29.4539 193.32 29.0531 192.712 28.2514C192.126 27.4498 192.028 26.3528 192.417 24.9604L194.418 17.8087C194.808 16.4164 195.52 15.3194 196.555 14.5177C197.611 13.7161 198.852 13.3152 200.275 13.3152H203.101C204.525 13.3152 205.541 13.7161 206.15 14.5177C206.758 15.3194 206.867 16.4164 206.477 17.8087L205.353 21.8276C205.282 22.0808 205.115 22.2073 204.853 22.2073H195.126C194.929 22.2073 194.804 22.3023 194.751 22.4921L194.069 24.9288C193.792 25.9203 193.839 26.6903 194.211 27.2388C194.59 27.7662 195.283 28.0299 196.29 28.0299H203.026C203.267 28.0299 203.355 28.1459 203.29 28.378L203.087 29.1058C203.022 29.3379 202.869 29.4539 202.628 29.4539ZM195.48 20.9415H203.662C203.859 20.9415 203.985 20.8466 204.038 20.6567L204.826 17.8404C205.103 16.8489 205.053 16.0894 204.674 15.562C204.302 15.0135 203.612 14.7392 202.604 14.7392H200.009C199.001 14.7392 198.157 15.0135 197.478 15.562C196.805 16.0894 196.33 16.8489 196.052 17.8404L195.264 20.6567C195.211 20.8466 195.283 20.9415 195.48 20.9415ZM213.084 29.4539H207.366C207.125 29.4539 207.037 29.3379 207.102 29.1058L207.306 28.378C207.365 28.167 207.515 28.0616 207.756 28.0616H213.309C215.28 28.0616 216.473 27.3232 216.886 25.8464L217.098 25.087C217.482 23.7157 217.119 22.8191 216.011 22.3972L212.328 20.8783C211.329 20.4563 210.668 19.9606 210.346 19.391C210.045 18.8214 210.036 18.0303 210.32 17.0176C211.01 14.5494 212.768 13.3152 215.594 13.3152H220.917C221.158 13.3152 221.246 13.4313 221.182 13.6633L220.978 14.3911C220.919 14.6021 220.769 14.7076 220.528 14.7076H215.369C214.471 14.7076 213.739 14.8974 213.172 15.2772C212.628 15.6569 212.285 16.0999 212.143 16.6063L211.94 17.3341C211.774 17.9248 211.809 18.3889 212.043 18.7264C212.299 19.064 212.745 19.3488 213.381 19.5808L217.046 21.1631C218.085 21.5217 218.69 22.0597 218.862 22.7769C219.061 23.4731 218.984 24.4541 218.63 25.7199C218.276 26.9857 217.641 27.9244 216.725 28.5362C215.831 29.148 214.617 29.4539 213.084 29.4539Z" fill="#1F2A56"/>
</g>
<defs>
<clipPath id="clip0_246_3248">
<rect width="231" height="29.6798" fill="white" transform="translate(0 0.855469)"/>
</clipPath>
</defs>
</svg>
