<svg width="48" height="48" viewBox="0 0 48 48" fill="none" xmlns="http://www.w3.org/2000/svg">
<path opacity="0.4" d="M18.4195 26.7921L11.0146 24.3238C6.99514 22.984 6.99514 17.2986 11.0146 15.9588L34.1895 8.23387C37.636 7.08501 40.915 10.364 39.7661 13.8105L32.0412 36.9854C30.7014 41.0049 25.016 41.0049 23.6762 36.9854L21.2079 29.5805C20.769 28.264 19.736 27.231 18.4195 26.7921Z" fill="#1F2A56"/>
<path fill-rule="evenodd" clip-rule="evenodd" d="M20.1167 27.8312C20.6071 28.3135 20.9845 28.9102 21.2079 29.5804L23.6762 36.9853C25.016 41.0047 30.7014 41.0047 32.0412 36.9853L39.7661 13.8104C40.345 12.0737 39.7996 10.3795 38.675 9.27295L20.1167 27.8312Z" fill="#1F2A56"/>
</svg>
