<svg width="48" height="48" viewBox="0 0 48 48" fill="none" xmlns="http://www.w3.org/2000/svg">
<path opacity="0.4" fill-rule="evenodd" clip-rule="evenodd" d="M33.9393 33.9393C34.5251 33.3536 35.4749 33.3536 36.0607 33.9393L45.0607 42.9393C45.6464 43.5251 45.6464 44.4749 45.0607 45.0607C44.4749 45.6464 43.5251 45.6464 42.9393 45.0607L33.9393 36.0607C33.3536 35.4749 33.3536 34.5251 33.9393 33.9393Z" fill="#28303F"/>
<path fill-rule="evenodd" clip-rule="evenodd" d="M23 42C33.4934 42 42 33.4934 42 23C42 12.5066 33.4934 4 23 4C12.5066 4 4 12.5066 4 23C4 33.4934 12.5066 42 23 42ZM23 13.5C23.8284 13.5 24.5 14.1716 24.5 15V21.5H31C31.8284 21.5 32.5 22.1716 32.5 23C32.5 23.8284 31.8284 24.5 31 24.5H24.5V31C24.5 31.8284 23.8284 32.5 23 32.5C22.1716 32.5 21.5 31.8284 21.5 31V24.5H15C14.1716 24.5 13.5 23.8284 13.5 23C13.5 22.1716 14.1716 21.5 15 21.5H21.5V15C21.5 14.1716 22.1716 13.5 23 13.5Z" fill="#28303F"/>
</svg>
