<svg width="32" height="32" viewBox="0 0 32 32" fill="none" xmlns="http://www.w3.org/2000/svg">
<path d="M16 2.6665C12.4645 2.6665 9.07079 4.07213 6.57288 6.57171C4.07288 9.0713 2.66663 12.465 2.66663 15.9998C2.66663 19.5346 4.07288 22.9284 6.57288 25.428C9.07079 27.9275 12.4645 29.3332 16 29.3332C19.5354 29.3332 22.9291 27.9275 25.427 25.428C27.927 22.9284 29.3333 19.5346 29.3333 15.9998C29.3333 12.465 27.927 9.0713 25.427 6.57171C22.9291 4.07213 19.5354 2.6665 16 2.6665V2.6665Z" fill="url(#paint0_linear_142_2451)"/>
<path d="M8.70366 15.8588C12.5912 14.1655 15.1828 13.049 16.4786 12.5096C20.1828 10.9694 20.9515 10.7019 21.4536 10.693C21.564 10.6911 21.8098 10.7184 21.9703 10.8482C22.1036 10.9575 22.1411 11.1055 22.1599 11.2092C22.1765 11.313 22.1995 11.5494 22.1807 11.734C21.9807 13.8423 21.112 18.9586 20.6703 21.32C20.4849 22.3193 20.1161 22.6543 19.7599 22.687C18.9849 22.7582 18.3973 22.1753 17.6473 21.6838C16.4744 20.9144 15.812 20.4357 14.6724 19.685C13.3557 18.8175 14.2099 18.3407 14.9599 17.5615C15.1557 17.3575 18.5682 14.2544 18.6328 13.973C18.6411 13.9378 18.6495 13.8065 18.5703 13.7373C18.4932 13.668 18.3786 13.6917 18.2952 13.7105C18.1765 13.7371 16.3036 14.9763 12.6702 17.4278C12.139 17.7932 11.6577 17.9713 11.2244 17.9619C10.7494 17.9517 9.83281 17.6928 9.15156 17.4715C8.31822 17.2 7.65361 17.0565 7.71194 16.5955C7.74111 16.3555 8.07241 16.1098 8.70366 15.8588V15.8588Z" fill="white"/>
<defs>
<linearGradient id="paint0_linear_142_2451" x1="16" y1="2.6665" x2="16" y2="29.3332" gradientUnits="userSpaceOnUse">
<stop stop-color="#2AABEE"/>
<stop offset="1" stop-color="#229ED9"/>
</linearGradient>
</defs>
</svg>
