<svg width="67" height="67" viewBox="0 0 67 67" fill="none" xmlns="http://www.w3.org/2000/svg">
<rect width="67" height="67" fill="url(#paint0_linear_246_3220)"/>
<path d="M20.0621 31.7623C28.1167 28.2345 33.4863 25.9086 36.1712 24.7849C43.8459 21.5761 45.4386 21.0188 46.4789 21.0002C46.7077 20.9963 47.217 21.0531 47.5494 21.3235C47.8256 21.5514 47.9034 21.8596 47.9423 22.0757C47.9768 22.2918 48.0243 22.7845 47.9855 23.169C47.5711 27.5614 45.7711 38.2202 44.856 43.1399C44.4718 45.2216 43.7078 45.9195 42.9697 45.9876C41.3639 46.136 40.1466 44.9216 38.5927 43.8977C36.1625 42.2948 34.79 41.2974 32.4288 39.7336C29.7008 37.9263 31.4705 36.9329 33.0245 35.3096C33.4302 34.8847 40.5006 28.4199 40.6344 27.8335C40.6516 27.7601 40.669 27.4867 40.505 27.3426C40.3453 27.1981 40.1077 27.2476 39.935 27.2866C39.689 27.3422 35.8085 29.9238 28.2805 35.031C27.1798 35.7922 26.1828 36.1633 25.2849 36.1438C24.3008 36.1225 22.4016 35.583 20.9901 35.1221C19.2636 34.5566 17.8865 34.2575 18.0074 33.297C18.0678 32.797 18.7543 32.2853 20.0621 31.7623Z" fill="white"/>
<defs>
<linearGradient id="paint0_linear_246_3220" x1="33.5" y1="0" x2="33.5" y2="67" gradientUnits="userSpaceOnUse">
<stop stop-color="#2AABEE"/>
<stop offset="1" stop-color="#229ED9"/>
</linearGradient>
</defs>
</svg>
