<svg width="31" height="32" viewBox="0 0 31 32" fill="none" xmlns="http://www.w3.org/2000/svg">
<g clip-path="url(#clip0_142_2452)">
<path d="M26.9225 3.12121C26.1273 2.38747 22.9138 0.0546619 15.7559 0.0229688C15.7559 0.0229688 7.315 -0.486042 3.20017 3.28832C0.909617 5.57935 0.103842 8.93163 0.0188469 13.0877C-0.0661483 17.2439 -0.176115 25.0327 7.3318 27.1446H7.33901L7.3342 30.3672C7.3342 30.3672 7.28618 31.6719 8.14526 31.938C9.18441 32.2607 9.79427 31.2691 10.7864 30.2001C11.3309 29.6133 12.0829 28.7514 12.6495 28.0925C17.7843 28.5247 21.7335 27.5369 22.182 27.391C23.2187 27.0548 29.0853 26.3033 30.0395 18.515C31.0244 10.4875 29.5631 5.40984 26.9225 3.12121Z" fill="#F1F1F2"/>
<path d="M25.2525 4.74329C24.5802 4.13248 21.6784 2.30916 15.6235 2.28275C15.6235 2.28275 8.45367 1.81168 4.97318 4.96419C3.03606 6.87682 2.38347 9.72104 2.31192 13.1919C2.24037 16.6628 1.86965 23.2934 8.21837 25.0572C8.21837 25.0572 8.1934 29.9797 8.19052 30.4123C8.19052 30.7149 8.23854 30.9218 8.41141 30.9646C8.53578 30.9948 8.7221 30.9305 8.88056 30.7725C9.89571 29.753 13.1457 25.8322 13.1457 25.8322C17.5064 26.117 20.9758 25.256 21.3489 25.134C22.2287 24.8512 26.987 24.4425 27.7923 17.9377C28.6244 11.2327 27.4864 6.65593 25.2525 4.74329Z" fill="#7360F2"/>
<path d="M18.7024 12.9057C18.6237 11.3181 17.8173 10.4843 16.2832 10.4043" stroke="#F1F1F2" stroke-width="0.533553" stroke-linecap="round" stroke-linejoin="round"/>
<path d="M20.7783 13.6025C20.8103 12.1235 20.3722 10.8878 19.4639 9.89535C18.5516 8.89942 17.2886 8.35103 15.668 8.23242" stroke="#F1F1F2" stroke-width="0.533553" stroke-linecap="round" stroke-linejoin="round"/>
<path d="M22.9053 14.4345C22.8854 11.868 22.1185 9.84667 20.6046 8.37054C19.0907 6.89441 17.2075 6.1485 14.9551 6.13281" stroke="#F1F1F2" stroke-width="0.533553" stroke-linecap="round" stroke-linejoin="round"/>
<path d="M16.3636 18.3279C16.3636 18.3279 16.9326 18.3759 17.239 17.9985L17.8364 17.247C18.1245 16.8743 18.8198 16.6366 19.5007 17.016C20.011 17.307 20.5064 17.6234 20.985 17.9639C21.4369 18.2962 22.3622 19.0684 22.3651 19.0684C22.8059 19.4405 22.9077 19.987 22.6076 20.5632C22.6076 20.5666 22.6052 20.5723 22.6052 20.5752C22.2747 21.1483 21.855 21.665 21.362 22.1061C21.3562 22.109 21.3562 22.1119 21.3509 22.1147C20.9226 22.4727 20.5018 22.6761 20.0885 22.7251C20.0276 22.7356 19.9658 22.7395 19.9041 22.7366C19.7218 22.7386 19.5405 22.7107 19.3672 22.654L19.3538 22.6343C18.717 22.4547 17.6539 22.0053 15.8834 21.0285C14.8581 20.4702 13.8821 19.8258 12.9657 19.1025C12.5066 18.7403 12.0687 18.352 11.6543 17.9394L11.6101 17.8952L11.5659 17.8511L11.5217 17.8069L11.4776 17.7627C11.065 17.3483 10.6767 16.9104 10.3145 16.4513C9.59135 15.5356 8.94702 14.5604 8.38843 13.536C7.41171 11.765 6.96224 10.7028 6.78265 10.0651L6.76296 10.0517C6.70673 9.87833 6.679 9.69702 6.68084 9.5148C6.67756 9.45311 6.68127 9.39125 6.69189 9.3304C6.74471 8.91807 6.94912 8.49694 7.3051 8.067C7.30799 8.06172 7.31087 8.06172 7.31375 8.05595C7.75464 7.56285 8.27143 7.14332 8.84462 6.8132C8.8475 6.8132 8.85327 6.81032 8.85663 6.81032C9.43287 6.51019 9.97933 6.61199 10.351 7.05042C10.3539 7.0533 11.1246 7.97864 11.4555 8.43051C11.7958 8.91071 12.1117 9.40595 12.4034 9.91624C12.7827 10.5967 12.545 11.2935 12.1724 11.5806L11.4209 12.178C11.0415 12.4844 11.0915 13.0534 11.0915 13.0534C11.0915 13.0534 12.2046 17.2662 16.3636 18.3279Z" fill="#F1F1F2"/>
</g>
<defs>
<clipPath id="clip0_142_2452">
<rect width="30.3481" height="32" fill="white"/>
</clipPath>
</defs>
</svg>
