<svg width="67" height="67" viewBox="0 0 67 67" fill="none" xmlns="http://www.w3.org/2000/svg">
<rect width="67" height="67" fill="#7360F2"/>
<g clip-path="url(#clip0_246_3224)">
<path d="M47.1622 21.4138C46.2713 20.6113 42.6711 18.0598 34.6519 18.0251C34.6519 18.0251 25.1952 17.4684 20.5852 21.5966C18.0191 24.1024 17.1163 27.769 17.0211 32.3147C16.9259 36.8605 16.8027 45.3795 25.2141 47.6894H25.2221L25.2167 51.2142C25.2167 51.2142 25.1629 52.6412 26.1254 52.9322C27.2896 53.2851 27.9728 52.2005 29.0843 51.0314C29.6944 50.3896 30.5369 49.4468 31.1717 48.7262C36.9243 49.1989 41.3487 48.1185 41.8512 47.9589C43.0127 47.5912 49.5852 46.7693 50.6542 38.2507C51.7576 29.4707 50.1205 23.917 47.1622 21.4138Z" fill="white"/>
<path d="M45.2918 23.1872C44.5387 22.5192 41.2876 20.5249 34.5042 20.496C34.5042 20.496 26.4716 19.9808 22.5723 23.4288C20.402 25.5208 19.6709 28.6317 19.5908 32.4279C19.5106 36.2242 19.0953 43.4764 26.208 45.4055C26.208 45.4055 26.18 50.7895 26.1768 51.2628C26.1768 51.5937 26.2306 51.82 26.4242 51.8668C26.5636 51.8999 26.7723 51.8295 26.9498 51.6567C28.0871 50.5416 31.7282 46.2532 31.7282 46.2532C36.6136 46.5647 40.5006 45.623 40.9186 45.4896C41.9042 45.1802 47.235 44.7333 48.1372 37.6187C49.0696 30.285 47.7945 25.2792 45.2918 23.1872Z" fill="#7360F2"/>
<path d="M37.9525 32.1187C37.8643 30.3823 36.9609 29.4703 35.2422 29.3828" stroke="white" stroke-width="0.533553" stroke-linecap="round" stroke-linejoin="round"/>
<path d="M40.2799 32.8774C40.3158 31.2597 39.825 29.9082 38.8074 28.8227C37.7853 27.7334 36.3704 27.1336 34.5547 27.0039" stroke="white" stroke-width="0.533553" stroke-linecap="round" stroke-linejoin="round"/>
<path d="M42.6627 33.787C42.6405 30.9799 41.7813 28.7691 40.0852 27.1545C38.3891 25.54 36.2794 24.7242 33.7559 24.707" stroke="white" stroke-width="0.533553" stroke-linecap="round" stroke-linejoin="round"/>
<path d="M35.3316 38.0468C35.3316 38.0468 35.9691 38.0993 36.3124 37.6865L36.9816 36.8645C37.3044 36.457 38.0834 36.197 38.8463 36.6119C39.4179 36.9302 39.9729 37.2762 40.5092 37.6487C41.0154 38.0121 42.0521 38.8567 42.0553 38.8567C42.5492 39.2637 42.6632 39.8614 42.327 40.4917C42.327 40.4954 42.3243 40.5017 42.3243 40.5048C41.954 41.1316 41.4838 41.6968 40.9315 42.1792C40.925 42.1824 40.925 42.1855 40.9191 42.1887C40.4392 42.5801 39.9678 42.8027 39.5047 42.8562C39.4366 42.8678 39.3673 42.872 39.2982 42.8688C39.094 42.871 38.8908 42.8405 38.6967 42.7785L38.6816 42.757C37.9683 42.5605 36.7772 42.0689 34.7936 41.0006C33.645 40.3899 32.5515 39.6852 31.5248 38.894C31.0105 38.4979 30.5199 38.0731 30.0556 37.6219L30.0061 37.5736L29.9566 37.5253L29.9071 37.4769L29.8576 37.4286C29.3954 36.9753 28.9604 36.4964 28.5546 35.9943C27.7445 34.9928 27.0226 33.9261 26.3968 32.8057C25.3025 30.8687 24.799 29.7069 24.5978 29.0094L24.5757 28.9947C24.5127 28.8051 24.4816 28.6068 24.4837 28.4075C24.48 28.34 24.4842 28.2724 24.4961 28.2058C24.5553 27.7548 24.7843 27.2942 25.1831 26.8239C25.1863 26.8182 25.1896 26.8182 25.1928 26.8119C25.6867 26.2725 26.2657 25.8137 26.9079 25.4526C26.9111 25.4526 26.9176 25.4495 26.9213 25.4495C27.5669 25.1212 28.1791 25.2325 28.5955 25.7121C28.5988 25.7152 29.4622 26.7273 29.8329 27.2215C30.2141 27.7468 30.5681 28.2884 30.8949 28.8466C31.3199 29.5908 31.0536 30.3529 30.6361 30.667L29.7942 31.3203C29.3691 31.6554 29.4251 32.2778 29.4251 32.2778C29.4251 32.2778 30.6721 36.8856 35.3316 38.0468Z" fill="white"/>
</g>
<defs>
<clipPath id="clip0_246_3224">
<rect width="34" height="35" fill="white" transform="translate(17 18)"/>
</clipPath>
</defs>
</svg>
