<svg width="67" height="67" viewBox="0 0 67 67" fill="none" xmlns="http://www.w3.org/2000/svg">
<rect width="67" height="67" fill="#40C351"/>
<rect x="19.5" y="21.9165" width="29" height="24.1667" fill="white"/>
<path d="M51.1027 16.9095C46.5449 12.3492 40.4839 9.83591 34.0266 9.8335C20.7204 9.8335 9.89131 20.6577 9.88648 33.9639C9.88406 38.2173 10.9957 42.3691 13.1079 46.0279L9.83331 58.1668L22.4797 55.1774C26.0056 57.1011 29.9738 58.1137 34.0145 58.1161H34.0242C47.3279 58.1161 58.157 47.2894 58.1642 33.9857C58.1691 27.5356 55.6606 21.4722 51.1027 16.9095ZM45.8368 42.589C45.3342 43.9979 42.8716 45.3561 41.7647 45.4552C40.6579 45.5567 39.6212 45.9554 34.5268 43.9472C28.3957 41.5305 24.5242 35.2448 24.2246 34.8436C23.9225 34.44 21.762 31.5738 21.762 28.6062C21.762 25.6385 23.3207 24.1788 23.8741 23.5771C24.4276 22.9729 25.0801 22.8231 25.4836 22.8231C25.8848 22.8231 26.2884 22.8231 26.6388 22.8376C27.069 22.8545 27.5451 22.8762 27.997 23.8792C28.5335 25.073 29.7056 28.0552 29.8554 28.3573C30.0052 28.6593 30.1067 29.0122 29.9061 29.4133C29.7056 29.8145 29.6041 30.0658 29.3044 30.4187C29.0023 30.7715 28.6712 31.2041 28.4006 31.4748C28.0985 31.7744 27.7843 32.1031 28.1347 32.7048C28.4876 33.309 29.6959 35.2834 31.4891 36.8808C33.7946 38.935 35.7352 39.5706 36.3393 39.8751C36.9435 40.1772 37.2939 40.1264 37.6467 39.7228C37.9996 39.3217 39.1547 37.9635 39.5559 37.3593C39.9571 36.7552 40.3607 36.8567 40.9141 37.0573C41.4675 37.2578 44.4327 38.7175 45.0345 39.0196C45.6387 39.3217 46.0398 39.4715 46.1897 39.7228C46.3395 39.9718 46.3395 41.1801 45.8368 42.589Z" fill="#40C351"/>
</svg>
