<svg width="32" height="32" viewBox="0 0 32 32" fill="none" xmlns="http://www.w3.org/2000/svg">
<rect x="8" y="9.3335" width="16" height="13.3333" fill="white"/>
<path d="M25.436 6.5705C22.9213 4.0545 19.5773 2.66784 16.0146 2.6665C8.67329 2.6665 2.69863 8.6385 2.69596 15.9798C2.69463 18.3265 3.30796 20.6172 4.47329 22.6358L2.66663 29.3332L9.64396 27.6838C11.5893 28.7452 13.7786 29.3038 16.008 29.3052H16.0133C23.3533 29.3052 29.328 23.3318 29.332 15.9918C29.3346 12.4332 27.9506 9.08784 25.436 6.5705ZM22.5306 20.7385C22.2533 21.5158 20.8946 22.2652 20.284 22.3198C19.6733 22.3758 19.1013 22.5958 16.2906 21.4878C12.908 20.1545 10.772 16.6865 10.6066 16.4652C10.44 16.2425 9.24796 14.6612 9.24796 13.0238C9.24796 11.3865 10.108 10.5812 10.4133 10.2492C10.7186 9.91584 11.0786 9.83317 11.3013 9.83317C11.5226 9.83317 11.7453 9.83317 11.9386 9.84117C12.176 9.85051 12.4386 9.8625 12.688 10.4158C12.984 11.0745 13.6306 12.7198 13.7133 12.8865C13.796 13.0532 13.852 13.2478 13.7413 13.4692C13.6306 13.6905 13.5746 13.8292 13.4093 14.0238C13.2426 14.2185 13.06 14.4572 12.9106 14.6065C12.744 14.7718 12.5706 14.9532 12.764 15.2852C12.9586 15.6185 13.6253 16.7078 14.6146 17.5892C15.8866 18.7225 16.9573 19.0732 17.2906 19.2412C17.624 19.4078 17.8173 19.3798 18.012 19.1572C18.2066 18.9358 18.844 18.1865 19.0653 17.8532C19.2866 17.5198 19.5093 17.5758 19.8146 17.6865C20.12 17.7972 21.756 18.6025 22.088 18.7692C22.4213 18.9358 22.6426 19.0185 22.7253 19.1572C22.808 19.2945 22.808 19.9612 22.5306 20.7385Z" fill="#40C351"/>
</svg>
